<?xml version="1.0" encoding="UTF-8"?><svg id="Layer_1" xmlns="http://www.w3.org/2000/svg" viewBox="0 0 1931.35 264.77"><defs><style>.cls-1,.cls-2{fill:#4f0007;}.cls-3{fill:#848383;}.cls-2{fill-rule:evenodd;}</style></defs><g><path class="cls-2" d="M864.09,106.09v12.82h-18.18c-.73,1.19-1.45,2.38-2.12,3.64-6.54,12.36-9.85,25.71-9.85,39.99s3.3,27.5,9.91,39.92c6.61,12.43,16.66,22.47,30.27,30.07,13.55,7.6,30.14,11.43,49.77,11.43s35.82-3.64,49.31-10.97c13.48-7.34,23.66-17.19,30.47-29.61,6.81-12.43,10.25-26.04,10.25-40.85,0-9.06-1.32-17.78-3.97-26.11h-20.03v-30.34h-17.05v26.24h-19.5c.4,.4,.86,.73,1.26,1.12,3.57,3.64,6.21,7.87,7.93,12.82,1.78,4.89,2.64,10.38,2.64,16.33,0,7.93-1.59,14.94-4.83,21.09-3.17,6.15-7.87,10.91-14.08,14.41-6.15,3.44-13.68,5.22-22.41,5.22-12.76,0-22.8-3.77-30.14-11.3-7.34-7.54-11.04-17.32-11.04-29.41s3.7-21.94,10.97-29.41c1.98-2.05,4.23-3.77,6.61-5.22h-29.02v-21.88h-7.2Zm-14.81,24.52h12.49v12.49h-12.49v-12.49Zm116.99,8.2h12.49v12.49h-12.49v-12.49Zm-97.36,1.98h12.49v12.49h-12.49v-12.49Zm124.33,3.37h12.49v12.49h-12.49v-12.49Zm-134.9,14.28h9.25v9.25h-9.25v-9.25Zm123.93,8.66h8.92v8.99h-8.92v-8.99Z"/><path class="cls-2" d="M879.56,92.14h23.27v23.27h-23.27v-23.27Z"/><path class="cls-2" d="M940.1,96.64h23.27v23.27h-23.27v-23.27Z"/><path class="cls-2" d="M997.74,104.5h20.16v20.16h-20.16v-20.16Z"/><path class="cls-2" d="M1009.37,63.79h12.49v12.49h-12.49v-12.49Z"/><path class="cls-2" d="M847.1,93.27h12.49v12.49h-12.49v-12.49Z"/><path class="cls-2" d="M870.1,63.13h12.49v12.43h-12.49v-12.43Z"/><path class="cls-2" d="M918.09,98.75h9.52v9.52h-9.52v-9.52Z"/><path class="cls-2" d="M949.49,54.67h12.16v12.16h-12.16v-12.16Z"/><path class="cls-2" d="M970.11,23.67h12.49v12.49h-12.49v-12.49Z"/><path class="cls-2" d="M943.41,13.03h6.01v6.01h-6.01v-6.01Z"/><path class="cls-2" d="M909.56,57.97h21.22v21.22h-21.22v-21.22Z"/><path class="cls-2" d="M973.81,62.07h20.03v20.03h-20.03v-20.03Z"/><path class="cls-2" d="M1015.52,30.28h6.01v6.01h-6.01v-6.01Z"/><path class="cls-2" d="M905.33,32h12.49v12.49h-12.49v-12.49Z"/></g><path class="cls-1" d="M236.59,59.13V242.15h-50.88v-100.99l-34.53,100.99h-42.58l-34.79-101.77v101.77H22.92V59.13h61.53l45.95,118.9,44.91-118.9h61.27Z"/><path class="cls-1" d="M381.45,212.3h-64.9l-9.87,29.86h-53.48L319.92,59.13h58.67l66.46,183.03h-53.74l-9.87-29.86Zm-12.72-38.94l-19.73-59.19-19.47,59.19h39.2Z"/><path class="cls-1" d="M554.35,242.15l-36.35-67.5h-5.45v67.5h-50.88V59.13h80.22c14.71,0,27.17,2.56,37.38,7.66,10.21,5.11,17.91,12.12,23.11,21.03,5.19,8.92,7.79,18.91,7.79,29.99,0,12.46-3.42,23.41-10.25,32.84-6.84,9.44-16.83,16.14-29.99,20.12l41.28,71.39h-56.86Zm-41.8-102.29h25.18c6.92,0,12.11-1.64,15.58-4.93,3.46-3.29,5.19-8.05,5.19-14.28,0-5.88-1.78-10.51-5.32-13.89-3.55-3.37-8.7-5.06-15.45-5.06h-25.18v38.16Z"/><path class="cls-1" d="M673.77,231.9c-14.37-8.05-25.75-19.21-34.14-33.49-8.4-14.28-12.59-30.42-12.59-48.42s4.19-34.14,12.59-48.42c8.39-14.28,19.77-25.4,34.14-33.36,14.36-7.96,30.12-11.94,47.25-11.94s33.1,3.98,47.38,11.94c14.28,7.96,25.57,19.08,33.88,33.36,8.31,14.28,12.46,30.42,12.46,48.42s-4.15,34.14-12.46,48.42c-8.31,14.28-19.65,25.44-34.01,33.49-14.37,8.05-30.11,12.07-47.25,12.07s-32.89-4.02-47.25-12.07Zm78.01-47.9c7.53-8.48,11.29-19.82,11.29-34.01s-3.76-26-11.29-34.4c-7.53-8.39-17.78-12.59-30.76-12.59s-23.45,4.2-30.89,12.59c-7.44,8.4-11.16,19.86-11.16,34.4s3.72,25.75,11.16,34.14c7.44,8.4,17.74,12.59,30.89,12.59s23.24-4.24,30.76-12.72Z"/><path class="cls-1" d="M1214.12,242.15h-50.88l-67.76-102.29v102.29h-50.88V59.13h50.88l67.76,103.59V59.13h50.88V242.15Z"/><path class="cls-3" d="M1360.02,119.36c-2.95-4.84-6.97-8.57-12.07-11.16-5.11-2.6-11.12-3.89-18.04-3.89-12.81,0-22.89,4.15-30.25,12.46-7.36,8.31-11.03,19.47-11.03,33.49,0,15.75,3.93,27.74,11.81,35.96,7.87,8.22,19.34,12.33,34.4,12.33,17.82,0,30.54-8.05,38.16-24.14h-51.14v-36.61h95.02v49.33c-3.98,9.69-9.82,18.78-17.52,27.26-7.7,8.48-17.44,15.45-29.21,20.9-11.77,5.45-25.18,8.18-40.24,8.18-18.35,0-34.57-3.93-48.68-11.81-14.11-7.87-25.01-18.86-32.71-32.97-7.7-14.1-11.55-30.24-11.55-48.42s3.85-34.05,11.55-48.16c7.7-14.1,18.56-25.09,32.58-32.97,14.02-7.87,30.2-11.81,48.55-11.81,23.02,0,42.06,5.54,57.12,16.62,15.06,11.08,24.4,26.22,28.04,45.43h-54.78Z"/><path class="cls-3" d="M1532.4,242.15l-36.35-67.5h-5.45v67.5h-50.88V59.13h80.22c14.71,0,27.17,2.56,37.38,7.66,10.21,5.11,17.91,12.12,23.11,21.03,5.19,8.92,7.79,18.91,7.79,29.99,0,12.46-3.42,23.41-10.25,32.84-6.84,9.44-16.83,16.14-29.99,20.12l41.28,71.39h-56.86Zm-41.8-102.29h25.18c6.92,0,12.11-1.64,15.58-4.93,3.46-3.29,5.19-8.05,5.19-14.28,0-5.88-1.78-10.51-5.32-13.89-3.55-3.37-8.7-5.06-15.45-5.06h-25.18v38.16Z"/><path class="cls-3" d="M1662.21,99.88v29.86h58.41v38.68h-58.41v32.97h66.2v40.76h-117.09V59.13h117.09v40.76h-66.2Z"/><path class="cls-3" d="M1920,59.13l-64.38,124.87v58.15h-51.14v-58.15l-64.38-124.87h58.15l32.19,70.61,32.19-70.61h57.37Z"/></svg>