<?xml version="1.0" encoding="UTF-8"?><svg id="Layer_1" xmlns="http://www.w3.org/2000/svg" viewBox="0 0 800 800"><defs><style>.cls-1{fill:#fff;fill-rule:evenodd;}</style></defs><circle cx="400" cy="400" r="385.22"/><g><path class="cls-1" d="M264.67,352.48v27.19h-38.54c-1.54,2.52-3.08,5.05-4.49,7.71-13.88,26.21-20.88,54.52-20.88,84.8s7.01,58.31,21.02,84.66c14.02,26.35,35.32,47.66,64.19,63.77,28.73,16.12,63.91,24.25,105.54,24.25s75.97-7.71,104.56-23.27c28.59-15.56,50.18-36.44,64.62-62.79,14.44-26.35,21.73-55.22,21.73-86.62,0-19.2-2.8-37.7-8.41-55.36h-42.47v-64.34h-36.16v55.64h-41.35c.84,.84,1.82,1.54,2.66,2.38,7.57,7.71,13.18,16.68,16.82,27.19,3.78,10.37,5.61,22.01,5.61,34.62,0,16.82-3.36,31.68-10.23,44.71-6.73,13.04-16.68,23.13-29.85,30.56-13.04,7.29-29.01,11.07-47.52,11.07-27.05,0-48.36-7.99-63.91-23.97-15.56-15.98-23.41-36.72-23.41-62.37s7.85-46.53,23.27-62.37c4.2-4.35,8.97-7.99,14.02-11.07h-61.53v-46.39h-15.28Zm-31.4,52h26.49v26.49h-26.49v-26.49Zm248.09,17.38h26.49v26.49h-26.49v-26.49Zm-206.46,4.2h26.49v26.49h-26.49v-26.49Zm263.65,7.15h26.49v26.49h-26.49v-26.49Zm-286.07,30.28h19.62v19.62h-19.62v-19.62Zm262.81,18.36h18.92v19.06h-18.92v-19.06Z"/><path class="cls-1" d="M297.47,322.91h49.34v49.34h-49.34v-49.34Z"/><path class="cls-1" d="M425.86,332.44h49.34v49.34h-49.34v-49.34Z"/><path class="cls-1" d="M548.08,349.12h42.75v42.75h-42.75v-42.75Z"/><path class="cls-1" d="M572.75,262.78h26.49v26.49h-26.49v-26.49Z"/><path class="cls-1" d="M228.65,325.29h26.49v26.49h-26.49v-26.49Z"/><path class="cls-1" d="M277.43,261.38h26.49v26.35h-26.49v-26.35Z"/><path class="cls-1" d="M379.19,336.93h20.18v20.18h-20.18v-20.18Z"/><path class="cls-1" d="M445.76,243.44h25.79v25.79h-25.79v-25.79Z"/><path class="cls-1" d="M489.49,177.7h26.49v26.49h-26.49v-26.49Z"/><path class="cls-1" d="M432.87,155.13h12.75v12.75h-12.75v-12.75Z"/><path class="cls-1" d="M361.1,250.45h44.99v44.99h-44.99v-44.99Z"/><path class="cls-1" d="M497.34,259.14h42.47v42.47h-42.47v-42.47Z"/><path class="cls-1" d="M585.79,191.72h12.75v12.75h-12.75v-12.75Z"/><path class="cls-1" d="M352.13,195.36h26.49v26.49h-26.49v-26.49Z"/></g></svg>